<svg width="42" height="42" viewBox="0 0 42 42" fill="none" xmlns="http://www.w3.org/2000/svg">
<path d="M32 32.25C30.0575 32.25 28.5 33.8075 28.5 35.75C28.5 36.6783 28.8687 37.5685 29.5251 38.2249C30.1815 38.8813 31.0717 39.25 32 39.25C32.9283 39.25 33.8185 38.8813 34.4749 38.2249C35.1313 37.5685 35.5 36.6783 35.5 35.75C35.5 34.8217 35.1313 33.9315 34.4749 33.2751C33.8185 32.6187 32.9283 32.25 32 32.25ZM4 4.25V7.75H7.5L13.8 21.0325L11.42 25.32C11.1575 25.81 11 26.3875 11 27C11 27.9283 11.3687 28.8185 12.0251 29.4749C12.6815 30.1313 13.5717 30.5 14.5 30.5H35.5V27H15.235C15.119 27 15.0077 26.9539 14.9256 26.8719C14.8436 26.7898 14.7975 26.6785 14.7975 26.5625C14.7975 26.475 14.815 26.405 14.85 26.3525L16.425 23.5H29.4625C30.775 23.5 31.93 22.765 32.525 21.6975L38.79 10.375C38.9125 10.095 39 9.7975 39 9.5C39 9.03587 38.8156 8.59075 38.4874 8.26256C38.1592 7.93437 37.7141 7.75 37.25 7.75H11.3675L9.7225 4.25M14.5 32.25C12.5575 32.25 11 33.8075 11 35.75C11 36.6783 11.3687 37.5685 12.0251 38.2249C12.6815 38.8813 13.5717 39.25 14.5 39.25C15.4283 39.25 16.3185 38.8813 16.9749 38.2249C17.6313 37.5685 18 36.6783 18 35.75C18 34.8217 17.6313 33.9315 16.9749 33.2751C16.3185 32.6187 15.4283 32.25 14.5 32.25Z" fill="#FBDD3D"/>
</svg>
