<svg width="24" height="24" viewBox="0 0 24 24" fill="none" xmlns="http://www.w3.org/2000/svg">
<g clip-path="url(#clip0_1099_1875)">
<path d="M12.0007 2.9V2.9H12.0001C11.8065 2.9 11.6208 2.97691 11.4839 3.11381C11.347 3.25071 11.2701 3.43639 11.2701 3.63V18.03C11.2701 18.2236 11.347 18.4093 11.4839 18.5462C11.6208 18.6831 11.8065 18.76 12.0001 18.76C12.1937 18.76 12.3794 18.6831 12.5163 18.5462C12.6532 18.4093 12.7301 18.2236 12.7301 18.03V11.56H20.3701C20.5637 11.56 20.7494 11.4831 20.8863 11.3462C21.0232 11.2093 21.1001 11.0236 21.1001 10.83V3.63C21.1001 3.43639 21.0232 3.25071 20.8863 3.11381C20.7494 2.97691 20.5637 2.9 20.3701 2.9L12.0901 2.9L12.0898 2.9C12.0747 2.90005 12.0595 2.90056 12.0444 2.90155C12.0298 2.9006 12.0153 2.90008 12.0007 2.9ZM12.8201 4.36H19.6401V10.1H12.8201V4.36Z" fill="#171717" stroke="#171717" stroke-width="0.2"/>
<path d="M9.84033 16.8228C7.93341 17.0924 6.59961 17.7372 6.59961 18.6859C6.59961 19.9639 8.82819 21.0002 11.9996 21.0002C15.171 21.0002 17.3996 19.9641 17.3996 18.6859C17.3996 17.737 16.0658 17.0924 14.1591 16.8229L13.8948 17.2728C15.3321 17.472 16.3196 17.8912 16.3196 18.3774C16.3196 19.0591 14.3855 19.6117 11.9996 19.6117C9.61371 19.6117 7.67961 19.0591 7.67961 18.3774C7.67943 17.8929 8.66061 17.4742 10.1022 17.274C10.0151 17.1235 9.92763 16.9734 9.84033 16.8228Z" fill="#171717"/>
</g>
<defs>
<clipPath id="clip0_1099_1875">
<rect width="18" height="18" fill="white" transform="translate(3 3)"/>
</clipPath>
</defs>
</svg>
