<svg width="32" height="32" viewBox="0 0 32 32" fill="none" xmlns="http://www.w3.org/2000/svg">
<circle opacity="0.2" cx="16" cy="16" r="15.5" stroke="black"/>
<path d="M11.9679 6.3999H20.0319C23.1039 6.3999 25.5999 8.8959 25.5999 11.9679V20.0319C25.5999 21.5086 25.0133 22.9249 23.9691 23.9691C22.9249 25.0133 21.5086 25.5999 20.0319 25.5999H11.9679C8.8959 25.5999 6.3999 23.1039 6.3999 20.0319V11.9679C6.3999 10.4912 6.98653 9.07493 8.03073 8.03073C9.07493 6.98653 10.4912 6.3999 11.9679 6.3999ZM11.7759 8.3199C10.8593 8.3199 9.98027 8.68402 9.33214 9.33214C8.68402 9.98027 8.3199 10.8593 8.3199 11.7759V20.2239C8.3199 22.1343 9.8655 23.6799 11.7759 23.6799H20.2239C21.1405 23.6799 22.0195 23.3158 22.6677 22.6677C23.3158 22.0195 23.6799 21.1405 23.6799 20.2239V11.7759C23.6799 9.8655 22.1343 8.3199 20.2239 8.3199H11.7759ZM21.0399 9.7599C21.3582 9.7599 21.6634 9.88633 21.8884 10.1114C22.1135 10.3364 22.2399 10.6416 22.2399 10.9599C22.2399 11.2782 22.1135 11.5834 21.8884 11.8084C21.6634 12.0335 21.3582 12.1599 21.0399 12.1599C20.7216 12.1599 20.4164 12.0335 20.1914 11.8084C19.9663 11.5834 19.8399 11.2782 19.8399 10.9599C19.8399 10.6416 19.9663 10.3364 20.1914 10.1114C20.4164 9.88633 20.7216 9.7599 21.0399 9.7599ZM15.9999 11.1999C17.2729 11.1999 18.4938 11.7056 19.394 12.6058C20.2942 13.506 20.7999 14.7269 20.7999 15.9999C20.7999 17.2729 20.2942 18.4938 19.394 19.394C18.4938 20.2942 17.2729 20.7999 15.9999 20.7999C14.7269 20.7999 13.506 20.2942 12.6058 19.394C11.7056 18.4938 11.1999 17.2729 11.1999 15.9999C11.1999 14.7269 11.7056 13.506 12.6058 12.6058C13.506 11.7056 14.7269 11.1999 15.9999 11.1999ZM15.9999 13.1199C15.2361 13.1199 14.5035 13.4233 13.9634 13.9634C13.4233 14.5035 13.1199 15.2361 13.1199 15.9999C13.1199 16.7637 13.4233 17.4963 13.9634 18.0364C14.5035 18.5765 15.2361 18.8799 15.9999 18.8799C16.7637 18.8799 17.4963 18.5765 18.0364 18.0364C18.5765 17.4963 18.8799 16.7637 18.8799 15.9999C18.8799 15.2361 18.5765 14.5035 18.0364 13.9634C17.4963 13.4233 16.7637 13.1199 15.9999 13.1199Z" fill="black"/>
</svg>
