<svg width="24" height="24" viewBox="0 0 24 24" fill="none" xmlns="http://www.w3.org/2000/svg">
<rect width="24" height="24" rx="4" fill="#282828"/>
<path d="M8.85 8.5L8.85177 8.5C9.06845 8.49985 9.28186 8.55186 9.47388 8.65146C9.6659 8.75106 9.83075 8.89525 9.95469 9.07158C10.4225 9.73715 11.1849 10.1335 11.9984 10.134C12.812 10.1345 13.5749 9.73913 14.0435 9.07415C14.2911 8.72286 14.6941 8.5 15.15 8.5C15.8983 8.5 16.5 9.10521 16.5 9.84548C16.5 10.8068 15.8911 12.0412 14.6433 13.2998C13.7616 14.1891 12.7754 14.8707 12 15.2792C11.2246 14.8707 10.2384 14.1891 9.35665 13.2998C8.10893 12.0412 7.5 10.8068 7.5 9.84548C7.5 9.10521 8.10169 8.5 8.85 8.5Z" stroke="#D21C1C" stroke-width="5" stroke-linecap="round" stroke-linejoin="round"/>
</svg>
