<svg width="24" height="24" viewBox="0 0 24 24" fill="none" xmlns="http://www.w3.org/2000/svg">
<path d="M7 11.9H6.9V12V13.25V13.35H7H10.75H10.85V13.25V12V11.9H10.75H7ZM7 8.15H6.9V8.25V9.5V9.6H7H14.5H14.6V9.5V8.25V8.15H14.5H7ZM19.6 15.6537V13.875C19.6 12.4448 18.4302 11.275 17 11.275C15.5698 11.275 14.4 12.4448 14.4 13.875V15.6537C13.7035 15.7053 13.15 16.2909 13.15 17V20.125C13.15 20.8677 13.7573 21.475 14.5 21.475H19.5C20.2427 21.475 20.85 20.8677 20.85 20.125V17C20.85 16.2909 20.2965 15.7053 19.6 15.6537ZM15.85 13.875C15.85 13.2427 16.3677 12.725 17 12.725C17.6323 12.725 18.15 13.2427 18.15 13.875V15.65H15.85V13.875ZM14.6 20.025V17.1H19.4V20.025H14.6Z" fill="#0A0A0A" stroke="#0A0A0A" stroke-width="0.2"/>
<path d="M4.6 12.625V4.6H16.9V9.5V9.6H17H18.25H18.35V9.5V4.5C18.35 3.75727 17.7427 3.15 17 3.15H4.5C3.75727 3.15 3.15 3.75727 3.15 4.5V12.625C3.15 15.2238 4.54476 17.5705 6.82792 18.7757C6.82806 18.7758 6.82819 18.7759 6.82832 18.7759L10.0776 20.5255L10.225 20.6049V20.4375V19V18.9407L10.173 18.9123L7.54803 17.4748L7.54807 17.4747L7.54472 17.4731C5.70542 16.5534 4.6 14.6517 4.6 12.625Z" fill="#0A0A0A" stroke="#0A0A0A" stroke-width="0.2"/>
</svg>
