<svg width="32" height="32" viewBox="0 0 32 32" fill="none" xmlns="http://www.w3.org/2000/svg">
<path d="M24.5331 6.60997C24.4268 6.50722 24.2976 6.43888 24.1592 6.41232C24.0209 6.38576 23.8787 6.40199 23.7479 6.45925L6.37721 14.0731C6.13103 14.1803 5.92261 14.3742 5.78333 14.6256C5.64404 14.8769 5.58143 15.1722 5.60493 15.4668C5.62843 15.7615 5.73675 16.0396 5.9136 16.2594C6.09045 16.4791 6.32625 16.6286 6.5855 16.6853L11.0863 17.675V23.2959C11.0854 23.602 11.1667 23.9014 11.3195 24.1553C11.4723 24.4091 11.6897 24.6057 11.9435 24.7196C12.1968 24.8355 12.4755 24.8633 12.7431 24.7994C13.0108 24.7355 13.2551 24.583 13.4443 24.3615L15.6146 21.8405L19.0577 25.2159C19.3061 25.4627 19.6265 25.5993 19.9585 25.5999C20.1041 25.5998 20.2487 25.5742 20.3871 25.5241C20.6134 25.4437 20.8168 25.2983 20.9773 25.1024C21.1378 24.9065 21.2496 24.6669 21.3017 24.4076L24.7808 7.45574C24.8119 7.30285 24.8053 7.14337 24.7617 6.99438C24.718 6.84538 24.639 6.7125 24.5331 6.60997ZM19.2926 10.066L11.6135 16.2254L7.36206 15.2913L19.2926 10.066ZM12.4577 23.2959V18.7378L14.5826 20.8248L12.4577 23.2959ZM19.9603 24.0639L12.8735 17.1038L23.0734 8.91591L19.9603 24.0639Z" fill="black"/>
<circle opacity="0.2" cx="16" cy="16" r="15.5" stroke="black"/>
</svg>
